<svg width="24" height="24" viewBox="0 0 24 24" fill="none" xmlns="http://www.w3.org/2000/svg">
<path fill-rule="evenodd" clip-rule="evenodd" d="M18.7071 8.29289C19.0976 8.68342 19.0976 9.31658 18.7071 9.70711L13.2071 15.2071C12.8166 15.5976 12.1834 15.5976 11.7929 15.2071C11.4024 14.8166 11.4024 14.1834 11.7929 13.7929L17.2929 8.29289C17.6834 7.90237 18.3166 7.90237 18.7071 8.29289Z" fill="#33363D"/>
<path fill-rule="evenodd" clip-rule="evenodd" d="M5.29289 8.29289C4.90237 8.68342 4.90237 9.31658 5.29289 9.70711L11.2929 15.7071C11.6834 16.0976 12.3166 16.0976 12.7071 15.7071C13.0976 15.3166 13.0976 14.6834 12.7071 14.2929L6.70711 8.29289C6.31658 7.90237 5.68342 7.90237 5.29289 8.29289Z" fill="#33363D"/>
</svg>
